<svg width="20" height="20" viewBox="0 0 20 20" fill="none" xmlns="http://www.w3.org/2000/svg">
<path d="M18.6257 0.625H1.37567C0.960828 0.625 0.625671 0.960156 0.625671 1.375V18.625C0.625671 19.0398 0.960828 19.375 1.37567 19.375H18.6257C19.0405 19.375 19.3757 19.0398 19.3757 18.625V1.375C19.3757 0.960156 19.0405 0.625 18.6257 0.625ZM16.46 6.09766H14.9624C13.7882 6.09766 13.5608 6.65547 13.5608 7.47578V9.28281H16.364L15.9983 12.1117H13.5608V19.375H10.6382V12.1141H8.19364V9.28281H10.6382V7.19687C10.6382 4.77578 12.1171 3.45625 14.278 3.45625C15.314 3.45625 16.2022 3.53359 16.4624 3.56875V6.09766H16.46Z" fill="#142E20" fill-opacity="0.62"/>
</svg>
