<svg width="22" height="22" viewBox="0 0 22 22" fill="none" xmlns="http://www.w3.org/2000/svg">
<path d="M11 5.50236C7.95978 5.50236 5.50621 7.95593 5.50621 10.9961C5.50621 14.0363 7.95978 16.4899 11 16.4899C14.0401 16.4899 16.4937 14.0363 16.4937 10.9961C16.4937 7.95593 14.0401 5.50236 11 5.50236ZM11 14.5666C9.03389 14.5666 7.42943 12.9622 7.42943 10.9961C7.42943 9.03004 9.03389 7.42557 11 7.42557C12.966 7.42557 14.5705 9.03004 14.5705 10.9961C14.5705 12.9622 12.966 14.5666 11 14.5666ZM16.7187 3.997C16.0089 3.997 15.4357 4.57022 15.4357 5.28004C15.4357 5.98986 16.0089 6.56307 16.7187 6.56307C17.4285 6.56307 18.0018 5.99254 18.0018 5.28004C18.002 5.11149 17.9689 4.94455 17.9045 4.78879C17.8401 4.63303 17.7456 4.49151 17.6264 4.37232C17.5072 4.25314 17.3657 4.15864 17.21 4.09424C17.0542 4.02983 16.8873 3.99679 16.7187 3.997ZM21.7089 10.9961C21.7089 9.51754 21.7223 8.05236 21.6393 6.57647C21.5562 4.86218 21.1651 3.34075 19.9116 2.08718C18.6553 0.83093 17.1366 0.442538 15.4223 0.359502C13.9437 0.276466 12.4785 0.289859 11.0026 0.289859C9.52407 0.289859 8.05889 0.276466 6.583 0.359502C4.86871 0.442538 3.34728 0.833609 2.09371 2.08718C0.837461 3.34343 0.449069 4.86218 0.366033 6.57647C0.282997 8.05504 0.29639 9.52022 0.29639 10.9961C0.29639 12.472 0.282997 13.9399 0.366033 15.4158C0.449069 17.13 0.84014 18.6515 2.09371 19.905C3.34996 21.1613 4.86871 21.5497 6.583 21.6327C8.06157 21.7158 9.52675 21.7024 11.0026 21.7024C12.4812 21.7024 13.9464 21.7158 15.4223 21.6327C17.1366 21.5497 18.658 21.1586 19.9116 19.905C21.1678 18.6488 21.5562 17.13 21.6393 15.4158C21.725 13.9399 21.7089 12.4747 21.7089 10.9961ZM19.3517 17.3122C19.1562 17.7997 18.9205 18.164 18.5428 18.539C18.1651 18.9166 17.8035 19.1524 17.316 19.3479C15.9071 19.9077 12.5616 19.7818 11 19.7818C9.43836 19.7818 6.09014 19.9077 4.68121 19.3506C4.19371 19.155 3.82943 18.9193 3.45443 18.5416C3.07675 18.164 2.84103 17.8024 2.6455 17.3149C2.08835 15.9033 2.21425 12.5577 2.21425 10.9961C2.21425 9.4345 2.08835 6.08629 2.6455 4.67736C2.84103 4.18986 3.07675 3.82557 3.45443 3.45057C3.8321 3.07557 4.19371 2.83718 4.68121 2.64165C6.09014 2.0845 9.43836 2.21039 11 2.21039C12.5616 2.21039 15.9098 2.0845 17.3187 2.64165C17.8062 2.83718 18.1705 3.0729 18.5455 3.45057C18.9232 3.82825 19.1589 4.18986 19.3544 4.67736C19.9116 6.08629 19.7857 9.4345 19.7857 10.9961C19.7857 12.5577 19.9116 15.9033 19.3517 17.3122Z" fill="#142E20" fill-opacity="0.62"/>
</svg>
