<svg width="32" height="32" viewBox="0 0 32 32" fill="none" xmlns="http://www.w3.org/2000/svg">
<g clip-path="url(#clip0_71_188)">
<path d="M16.0843 0.0717967C18.6781 0.0583777 20.825 2.00399 21.1224 4.52034C23.3992 4.99867 25.1085 7.01054 25.1265 9.42067L25.1266 9.48593L25.1174 11.2742L26.9057 11.2649C29.6933 11.2505 31.9647 13.4986 31.9792 16.2861C31.9915 18.6754 30.3416 20.6853 28.1147 21.2199C27.6 23.4479 25.6115 25.1087 23.236 25.1265L23.1707 25.1266L21.3823 25.1174L21.3916 26.9056C21.4061 29.6932 19.1581 31.9647 16.3706 31.9791C13.908 31.9919 11.8481 30.2389 11.3914 27.9081C8.88719 27.6214 6.94373 25.504 6.92447 22.9331L6.92427 22.8678L6.93354 21.0795L5.1452 21.0887C2.3577 21.1031 0.0862964 18.8552 0.0718465 16.0676C0.0588213 13.5527 1.88746 11.4579 4.29237 11.0616C4.7189 8.71859 6.76195 6.94283 9.21883 6.92442L9.28409 6.92422L11.0724 6.93349L11.0631 5.14524C11.0487 2.35773 13.2967 0.0862465 16.0843 0.0717967ZM20.0698 21.3952L17.0266 21.4108L17.0188 22.9201L17.018 22.9854C16.9786 25.1943 15.5216 27.0536 13.5215 27.6985C13.8426 29.0344 15.0485 30.0241 16.4818 30.0167C18.1281 30.0081 19.4608 28.6873 19.4938 27.0508L19.4944 26.9726L19.4747 23.1444L23.3028 23.1642L23.381 23.1636C24.5885 23.1392 25.624 22.4073 26.0874 21.3639L20.0698 21.3952ZM4.36512 13.2156C3.02278 13.5321 2.02686 14.7411 2.03429 16.179C2.04285 17.8253 3.36359 19.158 5.00018 19.191L5.07835 19.1916L8.90653 19.1717L8.88671 22.9999L8.88731 23.0781C8.91611 24.5078 9.93681 25.6964 11.2919 25.9799L11.2615 20.0699L11.2456 17.0291L9.23175 17.0188L9.16659 17.018C6.84639 16.9767 4.91171 15.3714 4.36512 13.2156ZM13.4021 20.1159L13.4307 25.6379C14.3091 25.129 14.909 24.1913 14.9421 23.1096L14.9434 23.0315L14.9744 17.0641L13.3861 17.0559L13.4021 20.1159ZM17.056 19.2705L20.1159 19.2546L26.2066 19.2229C25.8285 18.026 24.7268 17.149 23.4124 17.1089L23.3342 17.1075L17.0673 17.075L17.056 19.2705ZM21.1933 11.9811L21.209 15.0216L23.223 15.032L23.2881 15.0328C25.6659 15.0752 27.6389 16.7601 28.1278 18.9969C29.2409 18.5445 30.0232 17.4497 30.0167 16.1747C30.008 14.5284 28.6873 13.1957 27.0508 13.1627L26.9725 13.1622L23.1444 13.182L23.1642 9.35383L23.1636 9.27556C23.1378 7.99256 22.3132 6.90373 21.1648 6.48899L21.1933 11.9811ZM19.0246 6.52024C17.9303 6.95224 17.1467 8.00346 17.1089 9.24421L17.1076 9.32229L17.0782 14.9847L19.0685 14.995L19.0527 11.935L19.0246 6.52024ZM11.935 13.0992L6.36049 13.128C6.81607 14.1689 7.84037 14.9053 9.04237 14.9421L9.12044 14.9435L14.9852 14.9738L14.9951 13.0834L11.935 13.0992ZM15.9728 2.03424C14.3266 2.04282 12.9938 3.36356 12.9609 5.00013L12.9604 5.0784L12.9802 8.90648L9.15199 8.88676L9.07372 8.88726C7.75302 8.91387 6.63817 9.78697 6.25245 10.9882L11.9812 10.9585L15.0242 10.9428L15.0321 9.43359L15.0329 9.36843C15.0752 6.99981 16.7472 5.03292 18.971 4.53453C18.7201 3.10743 17.4707 2.02649 15.9728 2.03424Z" fill="#325D63"/>
</g>
<defs>
<clipPath id="clip0_71_188">
<rect width="32" height="32" fill="white"/>
</clipPath>
</defs>
</svg>
