<svg width="235" height="238" viewBox="0 0 235 238" fill="none" xmlns="http://www.w3.org/2000/svg">
<path d="M118.329 0.711243C145.943 0.568228 168.445 22.8387 168.588 50.4525L168.688 69.8284L185.018 69.9134L185.663 69.9212C212.978 70.4084 234.901 92.7739 234.759 120.172C234.617 147.57 212.464 169.707 185.146 169.911L184.5 169.912L166.784 169.821L166.876 187.536C167.019 215.15 144.749 237.651 117.136 237.794C89.5222 237.937 67.0201 215.668 66.877 188.054L66.7764 168.677L50.4473 168.593L49.8018 168.585C22.4875 168.098 0.565154 145.732 0.707031 118.334C0.849044 90.9366 23.0011 68.8001 50.3184 68.595L50.9648 68.5941L68.6807 68.6859L68.5889 50.97C68.4459 23.3566 90.7157 0.854813 118.329 0.711243ZM87.7295 120.275L87.874 148.233H88V168.787H87.9805L88.083 188.511L88.0967 189.284C88.5913 205.492 101.929 218.438 118.238 218.354C134.547 218.269 147.749 205.185 148.076 188.973L148.082 188.199L147.992 171H148V148H147.891L147.736 118.232L147.591 90.2728L117.885 90.1194L87.5723 89.9612L87.7295 120.275ZM168.941 118.688L169.105 150.385L185.809 150.472L186.583 150.466C202.795 150.14 215.879 136.937 215.964 120.628C216.048 104.319 203.103 90.9814 186.895 90.4866L186.121 90.473L168.794 90.3831L168.941 118.688ZM48.8818 88.0403C32.6696 88.3671 19.5859 101.569 19.501 117.878C19.4167 134.187 32.3632 147.525 48.5713 148.02L49.3447 148.034L66.6699 148.122L66.5234 119.819L66.3584 88.1204L49.6562 88.0345L48.8818 88.0403ZM117.227 20.1517C100.918 20.2368 87.7155 33.3205 87.3887 49.5325L87.3828 50.3079L87.4814 69.4075L116.782 69.5599L147.484 69.7181L147.383 49.9954L147.368 49.222C146.873 33.0138 133.536 20.0673 117.227 20.1517Z" fill="#325D63"/>
</svg>
