<svg width="18" height="24" viewBox="0 0 18 24" fill="none" xmlns="http://www.w3.org/2000/svg">
<path fill-rule="evenodd" clip-rule="evenodd" d="M1.98 11.264L6.681 13.542C6.87889 13.6382 7.04253 13.7927 7.14983 13.9847C7.25712 14.1768 7.30291 14.3971 7.281 14.616C7.25843 14.8354 7.1684 15.0423 7.02334 15.2083C6.87827 15.3743 6.6853 15.4913 6.471 15.543L1.39301 16.8C1.16855 16.8547 0.932524 16.8364 0.719118 16.748C0.505712 16.6595 0.325999 16.5055 0.206005 16.308C0.127239 16.1771 0.0774542 16.0308 0.0600049 15.879C-0.0962087 14.5321 0.0486097 13.1672 0.484005 11.883C0.533162 11.7385 0.612671 11.6062 0.717193 11.495C0.821716 11.3837 0.948832 11.2961 1.09001 11.238C1.23147 11.1795 1.38374 11.1515 1.53679 11.156C1.68984 11.1605 1.8402 11.1973 1.97801 11.264M3.862 20.879L7.36201 17.018C7.51035 16.8541 7.70545 16.7396 7.92094 16.69C8.13644 16.6405 8.36195 16.6583 8.56701 16.741C8.77102 16.8233 8.94492 16.9662 9.06525 17.1504C9.18558 17.3345 9.24657 17.5512 9.24 17.771L9.057 22.966C9.05175 23.1189 9.01366 23.2688 8.94533 23.4057C8.87701 23.5425 8.78004 23.663 8.66101 23.759C8.5417 23.8556 8.40323 23.9256 8.2548 23.9646C8.10636 24.0036 7.95134 24.0105 7.8 23.985C6.45631 23.7605 5.17746 23.2467 4.052 22.479C3.92579 22.3927 3.81946 22.2805 3.74013 22.1497C3.6608 22.019 3.6103 21.8729 3.59201 21.721C3.57408 21.5696 3.58891 21.416 3.63549 21.2707C3.68207 21.1254 3.75932 20.9919 3.862 20.879ZM12.16 15.74L17.135 17.346C17.2805 17.3932 17.4143 17.4707 17.5275 17.5735C17.6408 17.6762 17.7309 17.8019 17.792 17.942C17.8527 18.082 17.8826 18.2334 17.8797 18.3859C17.8767 18.5384 17.841 18.6885 17.775 18.826C17.1868 20.0501 16.338 21.1307 15.288 21.992C15.1695 22.0895 15.0315 22.1606 14.8834 22.2007C14.7353 22.2408 14.5803 22.2489 14.4288 22.2245C14.2773 22.2001 14.1327 22.1438 14.0046 22.0592C13.8766 21.9746 13.768 21.8638 13.686 21.734L10.913 17.326C10.796 17.14 10.7394 16.9222 10.7511 16.7027C10.7627 16.4832 10.842 16.2727 10.978 16.1C11.1144 15.9261 11.3009 15.7983 11.5123 15.7339C11.7237 15.6695 11.9498 15.6716 12.16 15.74ZM17.219 12.588L12.19 14.021C11.9776 14.0812 11.7519 14.0752 11.543 14.0037C11.3341 13.9322 11.152 13.7987 11.021 13.621C10.8912 13.4436 10.8194 13.2303 10.8157 13.0104C10.8119 12.7905 10.8763 12.5749 11 12.393L13.926 8.08505C14.0116 7.95849 14.1233 7.85164 14.2535 7.77163C14.3837 7.69162 14.5294 7.64028 14.681 7.62105C14.8328 7.60151 14.987 7.61431 15.1335 7.65861C15.28 7.7029 15.4155 7.77768 15.531 7.87805C16.5538 8.77286 17.3662 9.88266 17.91 11.128C17.9717 11.2683 18.0025 11.4201 18.0004 11.5732C17.9983 11.7264 17.9632 11.8773 17.8977 12.0158C17.8322 12.1542 17.7377 12.277 17.6206 12.3757C17.5035 12.4744 17.3665 12.5468 17.219 12.588ZM5.469 0.468047C4.58037 0.704127 3.71512 1.02077 2.884 1.41405C2.75036 1.4778 2.6313 1.56843 2.53426 1.68027C2.43722 1.79211 2.36428 1.92275 2.32001 2.06405C2.27627 2.20487 2.2623 2.35324 2.279 2.49975C2.2957 2.64626 2.3427 2.78768 2.417 2.91505L7.332 11.371C7.45087 11.5761 7.6341 11.7362 7.85326 11.8264C8.07241 11.9166 8.31523 11.932 8.544 11.87C8.77304 11.8108 8.97586 11.677 9.12052 11.4898C9.26517 11.3026 9.34344 11.0726 9.34301 10.836V1.07205C9.34386 0.849126 9.27474 0.631556 9.14539 0.449999C9.01604 0.268442 8.83298 0.132051 8.622 0.0600474C8.48178 0.011325 8.33304 -0.00807591 8.18501 0.00304739C7.267 0.0750474 6.359 0.231047 5.47001 0.468047" fill="#142E20" fill-opacity="0.62"/>
</svg>
